<svg width="100" height="100" viewBox="0 0 100 100" fill="none"
	xmlns="http://www.w3.org/2000/svg">
	<path d="M48.936 83.152C43.944 83.152 39.56 81.744 35.784 78.928C32.008 76.048 29.064 72.016 26.952 66.832C24.84 61.648 23.784 55.504 23.784 48.4C23.784 41.424 24.84 35.344 26.952 30.16C29.064 24.976 32.072 20.944 35.976 18.064C39.944 15.12 44.68 13.648 50.184 13.648C56.84 13.648 62.184 15.472 66.216 19.12C70.312 22.768 72.808 27.92 73.704 34.576H62.664C62.024 31.12 60.616 28.368 58.44 26.32C56.328 24.272 53.576 23.248 50.184 23.248C45 23.248 41.032 25.488 38.28 29.968C35.528 34.448 34.152 40.592 34.152 48.4C34.152 56.528 35.592 62.768 38.472 67.12C41.416 71.408 45.224 73.552 49.896 73.552C53.032 73.552 55.624 72.624 57.672 70.768C59.72 68.912 61.288 66.544 62.376 63.664C63.464 60.72 64.136 57.616 64.392 54.352H50.28V45.904H74.664V82H65.256L64.584 72.976H64.008C62.728 75.92 60.936 78.352 58.632 80.272C56.328 82.192 53.096 83.152 48.936 83.152Z" fill="#0D9488"/>
</svg>
